<svg id="Layer_1" data-name="Layer 1" xmlns="http://www.w3.org/2000/svg" viewBox="0 0 340.68 301.48"><defs><style>.cls-1,.cls-3{fill:#231f20;}.cls-2{fill:#0099a8;}.cls-3{fill-rule:evenodd;}</style></defs><polygon class="cls-1" points="124.57 220.77 124.57 218.61 110.41 218.61 110.41 240.69 124.57 240.69 124.57 238.53 112.93 238.53 112.93 230.37 124.09 230.37 124.09 228.21 112.93 228.21 112.93 220.77 124.57 220.77"/><path class="cls-1" d="M147.61,218.61l-5.88,14.28-.84,2.28c-.12.24-.24.6-.48,1.2l-.48,1.08-.48-1.08-.48-1.2-1-2.28-5.76-14.28h-4.44v22.08h2.52V220.53h.12a5.2,5.2,0,0,0,.12.6l.24.48.48,1,7.44,18.12h2.4l7.44-18.24.48-1.08c0-.12.12-.24.24-.48l.12-.48h.12v.6l-.12.72v19h2.52V218.61Z"/><path class="cls-1" d="M158.89,220.77h7.92c1.68,0,2.76.24,3.24.84a6.85,6.85,0,0,1,.84,4,4,4,0,0,1-1.08,3.24,7.26,7.26,0,0,1-3.84.84h-7.08Zm0,19.92v-8.88h8.16c2.16,0,3.36,1.32,3.36,3.84v5h2.52v-5.64c0-2.64-1.2-4.08-3.6-4.2v-.12a4.32,4.32,0,0,0,3.12-1.56,9,9,0,0,0,.84-4.32c0-2.28-.48-4-1.56-4.8s-2.64-1.44-5-1.44H156.37v22.08Z"/><path class="cls-1" d="M180,234.09l4.8-13.44,4.92,13.44Zm12.24,6.6h2.52l-8.16-22.08H183l-8,22.08h2.64l1.68-4.68h11.16Z"/><polygon class="cls-1" points="197.17 218.61 197.17 240.69 210.97 240.69 210.97 238.41 199.69 238.41 199.69 218.61 197.17 218.61"/><path class="cls-1" d="M215.77,220.77h7.68c2.52,0,4.08.48,4.8,1.56s1,3.6,1,7.56c0,3.6-.36,6-1.2,7.08s-2.4,1.56-5,1.56h-7.2Zm8.28,19.92c3,0,5-.84,6-2.4s1.56-4.8,1.56-9.6c0-4-.6-6.6-1.68-8s-3.24-2-6.48-2h-10.2v22.08Z"/><path class="cls-1" d="M33,259.29c-1.08-.72-3.24-1.2-6.48-1.2s-5.52.48-6.6,1.32-1.68,2.52-1.68,5q0,5.4,5.76,5.76l2.4.24,2.64.12a4.78,4.78,0,0,1,2.76.72c.48.48.6,1.32.6,2.76,0,2-.24,3.36-1,3.84s-2.4.6-5.28.6c-2.4,0-4-.12-4.56-.6s-1-1.8-1-3.72v-.6h-2.4v1.08c0,2.4.48,4.08,1.56,4.8s3.12,1.2,6.36,1.2c3.6,0,6-.36,7.08-1.08s1.56-2.64,1.56-5.28-.36-4.2-1.32-4.92-3.12-1.08-6.6-1.32c-2.88-.12-4.68-.36-5.28-.72s-1-1.44-1-3.24a3.63,3.63,0,0,1,1.2-3.12q1.08-.72,5-.72c2.16,0,3.6.24,4.2.72s.84,1.68.84,3.36h2.52Q34.45,260.55,33,259.29Z"/><polygon class="cls-1" points="51.13 260.49 51.13 258.33 36.97 258.33 36.97 280.41 51.13 280.41 51.13 278.25 39.49 278.25 39.49 270.09 50.65 270.09 50.65 267.93 39.49 267.93 39.49 260.49 51.13 260.49"/><path class="cls-1" d="M68.89,274.41c0,1.92-.36,3-1.08,3.48s-2.52.6-5.52.6-4.8-.48-5.4-1.56-.72-4.68-.72-10.8c0-2.76.36-4.32,1.2-4.92s2.88-1,6.48-1c2,0,3.36.36,3.84.84s1,1.56,1,3.36v.6h2.4v-.48c0-2.52-.48-4.2-1.44-5.16s-2.88-1.32-5.76-1.32c-4.08,0-6.84.48-8,1.44a4.46,4.46,0,0,0-1.92,2.64,41.24,41.24,0,0,0-.36,7.2q0,7.38,1.44,9.36c1.08,1.32,3.36,1.92,7.08,1.92,4.2,0,6.72-.36,7.8-1.08s1.56-2.64,1.56-5.64v-.84H68.89Z"/><path class="cls-1" d="M89.17,273.81q0,3.24-1.08,4c-.72.48-2.52.72-5.28.72s-4.32-.24-5-.72-1-1.8-1-4V258.33H74.29v16.32c0,2.28.6,4,1.8,4.8s3.48,1.2,6.84,1.2c3.6,0,5.88-.36,7.08-1.32s1.68-2.64,1.68-5.52V258.33H89.17Z"/><path class="cls-1" d="M98.53,260.49h7.92c1.68,0,2.76.36,3.24,1s.84,1.92.84,3.84q0,2.52-1.08,3.24c-.72.6-1.92.84-3.84.84H98.53Zm0,19.92v-8.88h8.16c2.28,0,3.36,1.32,3.36,3.84v5h2.52v-5.52c0-2.76-1.2-4.08-3.6-4.32a4.51,4.51,0,0,0,3.12-1.56c.6-.84.84-2.28.84-4.32,0-2.28-.48-4-1.44-4.92s-2.64-1.44-5-1.44H96v22.08Z"/><rect class="cls-1" x="116.65" y="258.33" width="2.64" height="22.2"/><polygon class="cls-1" points="138.13 260.61 138.13 258.33 121.33 258.33 121.33 260.61 128.53 260.61 128.53 280.41 131.05 280.41 131.05 260.61 138.13 260.61"/><rect class="cls-1" x="140.41" y="258.33" width="2.64" height="22.2"/><polygon class="cls-1" points="160.45 260.49 160.45 258.33 146.29 258.33 146.29 280.41 160.45 280.41 160.45 278.25 148.81 278.25 148.81 270.09 159.97 270.09 159.97 267.93 148.81 267.93 148.81 260.49 160.45 260.49"/><path class="cls-1" d="M177.37,259.29c-1.08-.72-3.24-1.2-6.48-1.2s-5.4.48-6.6,1.32-1.56,2.52-1.56,5c0,3.6,1.8,5.52,5.64,5.76l2.4.24,2.64.12a4.49,4.49,0,0,1,2.76.72,3.81,3.81,0,0,1,.72,2.76c0,2-.36,3.36-1,3.84s-2.52.6-5.28.6c-2.52,0-4.08-.12-4.68-.6s-.84-1.8-.84-3.72v-.6h-2.52v1.08c0,2.4.48,4.08,1.56,4.8s3.24,1.2,6.36,1.2c3.72,0,6-.36,7.08-1.08s1.68-2.64,1.68-5.28-.48-4.2-1.44-4.92-3.12-1.08-6.6-1.32c-2.88-.12-4.68-.36-5.28-.72s-.84-1.44-.84-3.24c0-1.56.36-2.64,1.08-3.12s2.52-.72,5-.72c2.28,0,3.6.24,4.2.72s1,1.68,1,3.36h2.4Q178.81,260.55,177.37,259.29Z"/><path class="cls-1" d="M204.25,259.29c-1.08-.72-3.24-1.2-6.48-1.2s-5.52.48-6.6,1.32-1.68,2.52-1.68,5q0,5.4,5.76,5.76l2.4.24,2.64.12a4.78,4.78,0,0,1,2.76.72c.48.48.6,1.32.6,2.76,0,2-.24,3.36-1,3.84s-2.4.6-5.28.6c-2.4,0-4-.12-4.56-.6s-1-1.8-1-3.72v-.6h-2.4v1.08c0,2.4.48,4.08,1.56,4.8s3.12,1.2,6.36,1.2c3.6,0,6-.36,7.08-1.08s1.56-2.64,1.56-5.28-.36-4.2-1.32-4.92-3.12-1.08-6.6-1.32c-2.88-.12-4.68-.36-5.28-.72s-1-1.44-1-3.24a3.63,3.63,0,0,1,1.2-3.12q1.08-.72,5-.72c2.16,0,3.6.24,4.2.72s1,1.68,1,3.36h2.4Q205.69,260.55,204.25,259.29Z"/><polygon class="cls-1" points="222.37 260.49 222.37 258.33 208.21 258.33 208.21 280.41 222.37 280.41 222.37 278.25 210.73 278.25 210.73 270.09 221.89 270.09 221.89 267.93 210.73 267.93 210.73 260.49 222.37 260.49"/><path class="cls-1" d="M228.25,260.49h7.92c1.68,0,2.76.36,3.24,1s.84,1.92.84,3.84q0,2.52-1.08,3.24c-.6.6-1.92.84-3.84.84h-7.08Zm0,19.92v-8.88h8.16c2.28,0,3.36,1.32,3.36,3.84v5h2.52v-5.52c0-2.76-1.2-4.08-3.48-4.32a4.47,4.47,0,0,0,3-1.56c.6-.84.84-2.28.84-4.32,0-2.28-.48-4-1.44-4.92s-2.64-1.44-5-1.44H225.73v22.08Z"/><path class="cls-1" d="M254.89,275.13a18.21,18.21,0,0,0-1.08,3.36h-.12a12.31,12.31,0,0,0-.48-1.68l-.6-1.8-5.88-16.68h-2.64l7.8,22.08h3.6l7.8-22.08h-2.64Z"/><rect class="cls-1" x="265.33" y="258.33" width="2.64" height="22.2"/><path class="cls-1" d="M286.57,274.41c0,1.92-.36,3-1.2,3.48s-2.52.6-5.4.6c-3.12,0-4.92-.48-5.4-1.56s-.72-4.68-.72-10.8c0-2.76.36-4.32,1.08-4.92s3-1,6.6-1a6.66,6.66,0,0,1,3.84.84c.6.48.84,1.56.84,3.36v.6h2.52v-.48c0-2.52-.48-4.2-1.44-5.16s-2.88-1.32-5.76-1.32c-4.08,0-6.84.48-8,1.44a4.7,4.7,0,0,0-2,2.64,47,47,0,0,0-.24,7.2q0,7.38,1.44,9.36c1,1.32,3.36,1.92,7.08,1.92,4.08,0,6.72-.36,7.68-1.08s1.56-2.64,1.56-5.64v-.84h-2.4Z"/><polygon class="cls-1" points="305.17 260.49 305.17 258.33 291.01 258.33 291.01 280.41 305.17 280.41 305.17 278.25 293.53 278.25 293.53 270.09 304.69 270.09 304.69 267.93 293.53 267.93 293.53 260.49 305.17 260.49"/><path class="cls-1" d="M322,259.29c-1-.72-3.12-1.2-6.48-1.2s-5.4.48-6.48,1.32-1.68,2.52-1.68,5c0,3.6,1.92,5.52,5.64,5.76l2.52.24,2.52.12a4.94,4.94,0,0,1,2.88.72,4.65,4.65,0,0,1,.6,2.76c0,2-.36,3.36-1,3.84s-2.4.6-5.28.6c-2.52,0-4-.12-4.56-.6s-1-1.8-1-3.72v-.6h-2.52l.12,1.08c0,2.4.48,4.08,1.56,4.8s3.12,1.2,6.36,1.2c3.6,0,6-.36,7.08-1.08s1.56-2.64,1.56-5.28-.48-4.2-1.44-4.92-3.12-1.08-6.48-1.32c-3-.12-4.68-.36-5.28-.72s-1-1.44-1-3.24c0-1.56.36-2.64,1.2-3.12s2.4-.72,5-.72c2.16,0,3.6.24,4.2.72s.84,1.68.84,3.36h2.52C323.53,261.81,323.05,260.13,322,259.29Z"/><path class="cls-1" d="M259,100.89H243.13a57.76,57.76,0,0,1-.12,12.84h3.48c-.36,2.88-.72,5.52-1.2,8-7.56,40.92-49,68.52-89.52,59.64-20.16-4.32-36-15-47.76-31.92a4,4,0,0,0-2.52-1.68c-4.2-.12-8.28,0-12.84,0,14.76,31.32,56.28,57.84,102.6,44.52C242.53,178.77,262.81,133.65,259,100.89Z"/><path class="cls-1" d="M100.09,100.77H94.93c.84-4.08,1.56-7.68,2.4-11.28,9.12-39.48,49.56-65,89.16-56.4,19.92,4.32,35.64,15,47.28,31.68.48.72,1.44,1.8,2.16,1.8,4.44.12,8.76.12,13.32.12-14.52-31-55.08-57.12-100.56-45.12-47.16,12.36-69.48,56.76-65.76,91.8h17.64A54.43,54.43,0,0,1,100.09,100.77Z"/><path class="cls-1" d="M131.53,100.77a20.35,20.35,0,0,1,.72-3.36c7.44-29.16,42.36-40,65.28-20.16.84.6,1.68,1.56,2.52,1.56,4.56.24,9.24.12,13.92.12-8.52-15-30.48-28.08-54.84-22.2a51.13,51.13,0,0,0-39.36,43.8,98.36,98.36,0,0,0-.24,12.84h.12c2.4,23.88,22.2,43.32,46.92,45.6,22.2,2,41.4-11.52,47.16-23.52-3.84,0-7.56.12-11.28,0a7.35,7.35,0,0,0-5.16,1.8c-22.08,19.08-56,9.48-64.56-18.24-.48-1.68-.84-3.48-1.2-5.4H198V100.77Z"/><path class="cls-2" d="M118,100.53h-5.76c.48-3.12.36-4.44,1-7.2,7.2-31,38.88-51,70-44.28a59.5,59.5,0,0,1,37.08,24.84c.36.6,1.08,1.44,1.68,1.44,3.48.12,7,.12,10.44.12-11.28-24.36-43.2-44.76-78.84-35.4-31.56,8.28-49,35.76-51.48,60.72h-.12a44.55,44.55,0,0,0,.6,12.72h4.68c3.48,0,7.08,0,10.56-.12,0-.48-.12-1.08-.12-1.8A75.63,75.63,0,0,1,118,100.53Z"/><path class="cls-2" d="M241.33,100.89h-7.8v.24c-10.44-.12-27.24-.36-33.6-.36v12.84h30.36c-.36,2.16-.72,3-1.08,5-5.88,32-38.4,53.64-70.2,46.8a60.14,60.14,0,0,1-37.44-25.08,3.5,3.5,0,0,0-1.92-1.32c-3.36-.12-6.6,0-10.08,0,11.52,24.6,44.16,45.36,80.4,34.92,31.32-9,48.36-36.36,51.12-60.24h.12A57.41,57.41,0,0,0,241.33,100.89Z"/><path class="cls-3" d="M319.69,239.25v2.88H241v-2.88Zm-217.92,0v2.88H23.17v-2.88Z"/></svg>